# xmcd
#
# Track frame offsets:
#	150
#	17923
#	31527
#	43606
#	57266
#
# Disc length: 876 seconds
#
# Revision: 1
# Processed by: cddbd v1.5.1PL0 Copyright (c) Steve Scherf et al.
# Submitted via: audiograbber 1.83.01
#
DISCID=33036a05
DTITLE=Tobias Klein - Toby's Songs 2004
DYEAR=2004
DGENRE=Christian Pop
TTITLE0=Dein Geist heiﬂt Freiheit
TTITLE1=Lord I want to seek You
TTITLE2=O Herr zeig mir den Weg
TTITLE3=I will worship you
TTITLE4=Lord I want to seek You (Short Version)
EXTD=Demoversion
EXTT0=
EXTT1=
EXTT2=
EXTT3=
EXTT4=
PLAYORDER=
